<svg width="23" height="38" viewBox="0 0 23 38" fill="none" xmlns="http://www.w3.org/2000/svg">
<path d="M8.1521 16.084C7.57319 15.2325 6.03645 13.689 4.52076 14.3277C3.00507 14.9663 3.15243 17.042 3.41557 18C2.15268 17.1485 0.0057705 14.5512 1.52124 10.9748C3.0367 7.39828 6.57326 9.48456 8.1521 10.9748C9.15209 12.0392 11.1205 14.5512 10.9942 16.084" stroke="black" stroke-width="2"/>
<path d="M14.8479 16.084C15.4268 15.2325 16.9636 13.689 18.4792 14.3277C19.9949 14.9663 19.8476 17.042 19.5844 18C20.8473 17.1485 22.9942 14.5512 21.4788 10.9748C19.9633 7.39828 16.4267 9.48456 14.8479 10.9748C13.8479 12.0392 11.8795 14.5512 12.0058 16.084" stroke="black" stroke-width="2"/>
<path d="M7 10C7.50314 7.80519 8.96226 2.98683 10.7736 1.27182C12.5849 -0.443194 14.3459 6.37602 15 10" stroke="black" stroke-width="2"/>
<path d="M9 20H13L12.5 29H16V30.5V33C16 35.8 15.6667 36.5 15.5 36.5H11C9 36.5 8.5 36.1667 8.5 36L9 20Z" stroke="black" stroke-width="2"/>
</svg>
