<svg width="36" height="36" viewBox="0 0 36 36" fill="none" xmlns="http://www.w3.org/2000/svg">
<path d="M16.5 7.05301C16.4997 6.84408 16.4375 6.63992 16.3213 6.4663C16.2051 6.29267 16.04 6.15737 15.847 6.07745C15.6539 5.99754 15.4415 5.9766 15.2366 6.01728C15.0317 6.05795 14.8434 6.15843 14.6955 6.30601L9.6195 11.3805C9.42361 11.5776 9.19055 11.7338 8.93384 11.8401C8.67713 11.9465 8.40186 12.0008 8.124 12H4.5C4.10218 12 3.72064 12.158 3.43934 12.4394C3.15804 12.7207 3 13.1022 3 13.5V22.5C3 22.8978 3.15804 23.2794 3.43934 23.5607C3.72064 23.842 4.10218 24 4.5 24H8.124C8.40186 23.9992 8.67713 24.0535 8.93384 24.1599C9.19055 24.2662 9.42361 24.4224 9.6195 24.6195L14.694 29.6955C14.8419 29.8437 15.0305 29.9447 15.2358 29.9856C15.4411 30.0265 15.654 30.0056 15.8474 29.9254C16.0408 29.8452 16.2061 29.7095 16.3222 29.5353C16.4384 29.3611 16.5003 29.1564 16.5 28.947V7.05301Z" stroke="black" stroke-width="3" stroke-linecap="round" stroke-linejoin="round"/>
<path d="M24 13.5C24.9737 14.7982 25.5 16.3772 25.5 18C25.5 19.6228 24.9737 21.2018 24 22.5" stroke="black" stroke-width="3" stroke-linecap="round" stroke-linejoin="round"/>
<path d="M29.0454 27.546C30.299 26.2924 31.2934 24.8042 31.9719 23.1663C32.6503 21.5284 32.9995 19.7729 32.9995 18C32.9995 16.2271 32.6503 14.4716 31.9719 12.8337C31.2934 11.1958 30.299 9.70759 29.0454 8.45399" stroke="black" stroke-width="3" stroke-linecap="round" stroke-linejoin="round"/>
</svg>
