<svg width="13" height="22" viewBox="0 0 13 22" fill="none" xmlns="http://www.w3.org/2000/svg">
<path d="M0.932031 18.96C2.29203 18.8267 3.22536 18.5067 3.73203 18C4.2387 17.4933 4.49203 16.5733 4.49203 15.24V6.6C4.49203 5.66667 4.34536 5.05333 4.05203 4.76C3.7587 4.46667 3.22536 4.32 2.45203 4.32C2.13203 4.32 1.74536 4.34667 1.29203 4.4C0.865365 4.45333 0.585365 4.49333 0.452031 4.52L0.212031 4.28L0.452031 2C2.02536 1.84 3.62536 1.64 5.25203 1.4C7.22537 1.13333 8.5987 0.933333 9.37203 0.8C10.1454 0.666665 10.5587 0.599998 10.612 0.599998L11.012 1.76C10.532 2.16 10.1854 2.58667 9.97203 3.04C9.7587 3.46667 9.5987 4.09333 9.49203 4.92C9.22537 7.96 9.09203 11.5867 9.09203 15.8C9.09203 16.7867 9.21203 17.48 9.45203 17.88C9.7187 18.2533 10.1854 18.44 10.852 18.44C11.332 18.44 11.7454 18.4267 12.092 18.4C12.4654 18.3733 12.7054 18.36 12.812 18.36L12.932 18.56L12.492 21.16C12.092 21.1333 11.332 21.0933 10.212 21.04C9.09203 21.0133 7.94536 21 6.77203 21C5.5987 21 4.30536 21.0667 2.89203 21.2C1.50536 21.36 0.745365 21.44 0.612031 21.44L0.932031 18.96Z" fill="#040404"/>
</svg>
